<svg width="672" height="448" viewBox="0 0 672 448" fill="none" xmlns="http://www.w3.org/2000/svg">
<path d="M345.643 73.034C295.719 48.3351 168.453 90.3519 157.827 130.2C147.202 170.049 150.949 317.116 239.909 341.789C361.759 375.586 400.264 245.354 405.181 203.335C410.097 161.315 381.87 90.9636 345.643 73.034Z" fill="#B5C0EB"/>
<path d="M521.104 173.423C504.694 106.564 342.728 91.475 307.394 136.306C243.284 217.657 331.887 426.791 424.307 383.777C488.363 353.964 535.535 232.221 521.104 173.423Z" fill="#92A4EB"/>
<path d="M500.738 400.374H162.248" stroke="#210602" stroke-width="2.06" stroke-linecap="round" stroke-linejoin="round"/>
<path d="M313.643 103.411C314.553 107.607 338.214 142.601 341.169 144.218C344.124 145.835 395.595 151.746 395.595 151.746C395.595 151.746 349.144 175.764 335.727 173.239C324.768 171.189 301.578 132.972 301.578 132.972L313.643 103.411Z" fill="#FFFFFD"/>
<path d="M347.825 305.462L330.605 250.461L333.259 249.703L349.786 304.385L347.825 305.462Z" fill="#EDE5DC"/>
<path d="M331.615 255.429L346.819 306.053" stroke="#210602" stroke-width="2.06" stroke-linecap="round" stroke-linejoin="round"/>
<path d="M325.038 253.749C318.857 252.195 314.673 246.624 317.037 239.8C321.7 226.339 365.165 224.938 369.975 239.622C372.81 248.284 365.762 252.46 359.166 253.723C352.633 254.973 347.104 253.229 343.538 252.083C339.764 253.146 330.543 255.128 325.038 253.749Z" fill="#F5DABB"/>
<path d="M335.2 227.956C321.927 227.517 314.322 234.082 312.513 239.338C309.891 246.908 314.523 253.094 321.39 254.815C322.418 255.073 326.559 255.84 330.292 255.145" stroke="#210602" stroke-width="2.06" stroke-linecap="round" stroke-linejoin="round"/>
<path d="M331.549 400.076H329.992L355.858 319.928H359.767L331.549 400.076Z" fill="#EDE5DC"/>
<path d="M355.226 320.611L329.34 399.378" stroke="#210602" stroke-width="2.06" stroke-linecap="round" stroke-linejoin="round"/>
<path d="M354.678 323.259L355.858 319.928H359.767L358.879 322.217L354.678 323.259Z" fill="#CFC0C0"/>
<path d="M356.269 400.076H354.713L373.003 319.928H376.912L356.269 400.076Z" fill="#EDE5DC"/>
<path d="M372.374 320.611L354.061 399.378" stroke="#210602" stroke-width="2.06" stroke-linecap="round" stroke-linejoin="round"/>
<path d="M372.146 323.351L373.002 319.928H376.911L376.282 322.154L372.146 323.351Z" fill="#CFC0C0"/>
<path d="M410.463 400.076H412.019L393.729 319.928H389.82L410.463 400.076Z" fill="#EDE5DC"/>
<path d="M394.359 320.611L412.523 399.309" stroke="#210602" stroke-width="2.06" stroke-linecap="round" stroke-linejoin="round"/>
<path d="M394.585 323.351L393.729 319.928H389.82L390.452 322.154L394.585 323.351Z" fill="#CFC0C0"/>
<path d="M416.341 319.109H354.144C350.655 319.109 347.955 316.424 347.955 313.365C347.955 309.882 351.999 305.927 359.491 305.671C365.895 305.453 370.272 306.852 385.105 309.833C396.101 307.998 406.172 305.465 413.981 305.476C418.515 305.476 422.251 310.562 422.251 313.635C422.398 316.924 419.83 319.109 416.341 319.109Z" fill="#F5DABB"/>
<path d="M421.729 307.377C425.074 312.366 424.46 319.928 416.959 319.928H349.446C343.682 319.928 338.82 309.91 348.673 305.111C354.129 302.455 359.836 303.101 366.389 304.6" stroke="#210602" stroke-width="2.06" stroke-linecap="round" stroke-linejoin="round"/>
<path d="M341.971 179.949C345.914 173.943 385.301 156.189 385.301 156.189L399.579 159.871C399.579 159.871 422.87 173.392 425.882 177.752C427.407 179.96 426.299 265.544 426.299 265.544C426.299 265.544 371.465 296.076 365.787 299.336C360.11 302.596 350.147 302.613 348.416 301.384C345.096 291.564 339.174 184.208 341.971 179.949Z" fill="#5D6685"/>
<path d="M425.888 177.751C432.579 184.121 432.906 231.532 432.616 237.006C432.183 245.242 450.953 259.16 450.183 262.075C448.153 269.769 426.172 278.732 428.432 276.891C430.692 275.051 400.314 275.691 400.314 275.691C400.314 275.691 398.393 199.472 400.188 195.242C401.983 191.011 422.275 174.328 425.888 177.751Z" fill="#5D6685"/>
<path d="M377.596 160.729C377.596 160.155 381.935 155.896 382.369 156.203C382.294 156.645 393.494 162.045 398.652 160.729C399.786 160.973 402.83 162.452 402.778 163.937C402.83 168.754 405.168 211.006 403.804 222.218C403.804 222.218 377.929 165.218 377.596 160.729Z" fill="#EDE5DC"/>
<path d="M403.157 235.374C404.97 234.768 404.332 238.226 403.246 238.197C402.161 238.169 401.532 235.917 403.157 235.374Z" stroke="#210602" stroke-width="2.06" stroke-linecap="round" stroke-linejoin="round"/>
<path d="M404.493 255.007C406.305 254.401 405.668 257.859 404.582 257.83C403.497 257.802 402.868 255.55 404.493 255.007Z" stroke="#210602" stroke-width="2.06" stroke-linecap="round" stroke-linejoin="round"/>
<path d="M426.684 206.276C426.798 211.115 426.784 263.652 426.684 267.641" stroke="#210602" stroke-width="2.06" stroke-linecap="round" stroke-linejoin="round"/>
<path d="M420.556 132.57C420.378 134.162 420.108 135.742 419.746 137.303C419.37 139.115 418.207 139.836 417.38 141.298C416.475 142.894 416.519 144.227 415.083 145.606C414.437 146.232 413.647 146.657 413.098 147.415C412.55 148.173 412.492 148.98 411.714 149.629C409.885 151.154 406.973 149.689 405.517 148.302C402.809 145.718 401.93 141.527 401.623 137.926C401.335 134.623 401.577 130.841 402.697 127.639C403.647 124.93 406.332 124.899 408.914 124.927C410.094 124.942 411.323 124.962 412.455 125.41C413.986 126.016 414.178 126.811 415.399 127.995C416.242 128.867 417.156 129.667 418.132 130.387C418.994 130.996 419.646 131.711 420.556 132.57Z" fill="#73261B"/>
<path d="M383.531 133.021C383.488 134.244 384.703 136.685 384.393 137.314C383.686 138.79 382.403 139.976 381.989 141.206C381.645 142.168 381.607 143.213 381.88 144.198C382.012 144.544 382.115 144.901 382.187 145.264C382.311 146.243 381.696 147.148 381.435 148.098C381.007 149.652 381.561 151.352 382.561 152.613C383.56 153.874 384.964 154.756 386.403 155.485C388.158 156.373 390.283 157.062 392.043 156.183C392.778 155.773 393.414 155.206 393.904 154.523C396.796 150.821 397.531 145.858 397.373 141.165C397.284 138.526 396.911 135.795 395.492 133.569C394.074 131.343 391.383 129.721 388.701 130.335C385.829 130.993 383.632 130.163 383.531 133.021Z" fill="#73261B"/>
<path d="M393.534 167.022C394.683 167.513 397.974 166.772 398.072 166.416C399.008 162.969 400.114 158.756 400.582 156.43L400.547 156.398C400.547 156.398 389.396 139.213 387.705 143.449C386.114 147.441 384.546 151.849 382.056 156.304C381.306 157.651 391.774 166.269 393.534 167.022Z" fill="#D16556"/>
<path d="M407.892 165.864C405.988 166.686 403.297 167.499 400.233 166.585C393.148 164.483 388.266 157.292 388.151 149.916C388.031 143.052 391.678 131.249 392.936 130.37C394.7 129.181 396.618 128.238 398.636 127.567C404.248 125.683 407.588 126.452 412.318 130.878C413.897 132.346 415.801 133.357 416.76 134.686C417.676 135.962 417.731 140.528 416.381 147.349C415.588 151.375 411.815 164.176 407.892 165.864Z" fill="#D16556"/>
<path d="M386.285 137.317C383.485 138.572 385.527 149.02 389.358 145.537C393.189 142.053 389.702 135.792 386.285 137.317Z" fill="#D16556"/>
<path d="M388.39 140.002C387.086 139.161 385.892 142.848 387.442 143.486C389.257 144.236 389.453 140.689 388.39 140.002Z" fill="#C45749"/>
<path d="M389.024 142.469C389.331 140.582 387.617 138.759 386.727 139.709" stroke="#210602" stroke-width="2.06" stroke-linecap="round" stroke-linejoin="round"/>
<path d="M387.117 141.401C387.634 140.743 388.674 140.89 388.952 141.24" stroke="#210602" stroke-width="2.06" stroke-linecap="round" stroke-linejoin="round"/>
<path d="M407.713 141.318C406.338 140.069 404.006 139.612 402.659 139.514C402.067 139.471 401.59 139.824 402.331 140.376C403.256 141.059 405.243 142.314 405.918 143.248C405.985 143.344 406.071 143.426 406.17 143.488C406.268 143.551 406.379 143.594 406.494 143.613C406.61 143.633 406.728 143.63 406.842 143.603C406.956 143.577 407.064 143.529 407.159 143.46C407.595 143.147 408.695 141.921 407.713 141.318Z" fill="#73261B"/>
<path d="M412.256 148.136C412.027 148.673 411.828 149.713 411.986 150.161C412.173 150.689 412.722 150.543 413.193 149.962C413.532 149.444 413.771 148.866 413.896 148.259C413.954 147.929 412.299 148.038 412.256 148.136Z" fill="#210602"/>
<path d="M402.147 145.376C401.903 145.95 401.69 147.064 401.86 147.547C402.058 148.121 402.647 147.958 403.152 147.334C403.516 146.779 403.772 146.159 403.904 145.508C403.971 145.155 402.193 145.27 402.147 145.376Z" fill="#210602"/>
<path d="M388.298 126.941C388.406 126.675 388.491 126.4 388.553 126.119C388.665 125.614 388.553 125.019 388.737 124.48C389.09 123.371 389.691 122.581 390.429 121.725C391.48 120.505 393.481 119.66 395.078 120.002C397.215 120.47 397.493 119.276 399.314 118.362C400.641 117.699 404.276 117.756 405.681 118.075C408.777 118.753 408.039 120.304 411.246 121.458C413.613 122.32 419.075 122.36 420.766 126.117C422.837 130.712 418.343 137.978 418.13 137.702C417.211 136.507 417.648 134.457 415.077 133.52C413.911 133.098 412.283 133.285 411.186 133.233C408.811 133.113 406.942 131.275 404.325 131.582C403.177 131.717 401.939 131.797 400.879 132.286C399.73 132.811 399.093 134.035 397.887 134.379C396.221 134.856 394.978 133.707 394.28 135.091C393.384 136.875 394.053 140.086 392.287 143.885C391.684 145.184 390.877 145.405 390.343 145.063C390.021 144.859 389.8 143.868 390.055 142.372C390.282 140.976 390.228 138.977 389.237 137.854C388.246 136.731 384.355 135.583 384.151 134.244C384.007 133.354 383.706 132.07 383.97 131.553C384.656 130.2 385.98 129.752 387.051 128.802C387.601 128.283 388.027 127.647 388.298 126.941Z" fill="#73261B"/>
<path d="M409.082 155.528C408.421 156.582 405.564 155.528 404.717 154.339" stroke="#210602" stroke-width="2.06" stroke-linecap="round" stroke-linejoin="round"/>
<path d="M404.792 158.799C404.01 159.767 401.299 158.389 400.602 157.096" stroke="#210602" stroke-width="2.06" stroke-linecap="round" stroke-linejoin="round"/>
<path d="M398.229 165.83C392.704 163.291 388.887 157.671 389.04 154.477" stroke="#210602" stroke-width="2.06" stroke-linecap="round" stroke-linejoin="round"/>
<path d="M416.471 142.943C415.541 142.564 412.847 142.182 411.905 142.593C411.313 142.851 411.104 143.865 411.618 144.537C411.774 144.769 412.007 144.939 412.275 145.018C412.544 145.096 412.832 145.077 413.088 144.965C414.033 144.54 416.003 143.615 416.178 143.638C416.79 143.716 416.956 143.138 416.471 142.943Z" fill="#73261B"/>
<path d="M464.345 388.102C461.051 386.445 459.713 370.204 459.713 370.204L448.088 370.718C448.088 370.718 451.649 389.843 449.323 392.258C446.997 394.673 462.903 397.873 462.903 397.873L464.345 388.102Z" fill="#6B423D"/>
<path d="M483.875 403.47C481.578 406.394 479.688 406.69 473.319 406.055C467.535 405.481 464.99 403.683 460.151 402.959C456.789 402.456 453.684 403.867 448.015 401.899C446.375 401.325 445.603 399.998 446.206 397.304C446.642 395.36 449.905 395.615 450.801 395.661L475.119 398.93C475.587 398.93 480.099 398.103 483.232 399.099C485.334 399.777 484.671 402.462 483.875 403.47Z" fill="#695B64"/>
<path d="M484.073 400.601C483.05 402.574 481.367 403.453 474.745 403.105C468.206 402.761 464.743 400.587 459.642 400.409C455.108 400.251 453.072 400.101 450.427 399.696C447.101 399.182 446.489 397.419 446.693 396.006C447.268 392.333 449.195 390.523 449.404 386.977C449.404 386.727 450.722 386.735 451.621 387.402C454.315 389.412 457.939 395.004 460.728 393.912C461.354 385.271 464.257 386.862 465.257 387.982C467.735 390.759 475.882 395.659 479.087 397.31C481.456 398.525 484.837 399.128 484.073 400.601Z" fill="#BAA4A4"/>
<path d="M468.195 390.5C466.346 391.649 465.507 393.861 465.246 394.234" stroke="#210602" stroke-width="2.06" stroke-linecap="round" stroke-linejoin="round"/>
<path d="M471.261 392.37C469.515 393.536 468.714 395.644 468.461 396.018" stroke="#210602" stroke-width="2.06" stroke-linecap="round" stroke-linejoin="round"/>
<path d="M474.634 394.349C472.911 395.521 472.141 397.588 471.889 397.959" stroke="#210602" stroke-width="2.06" stroke-linecap="round" stroke-linejoin="round"/>
<path d="M411.594 374.527C412.725 378.642 413.541 390.578 412.274 393.769C411.008 396.96 422.142 398.599 422.142 398.599L429.106 393.358C429.106 393.358 424.477 381.741 423.799 372.893C423.121 364.044 411.594 374.527 411.594 374.527Z" fill="#6B423D"/>
<path d="M411.009 396.934C409.602 397.594 409.338 400.954 410.254 401.661C411.483 402.603 421.675 406.856 427.594 407.023C430.627 407.109 435.451 406.141 436.841 404.941C437.276 404.587 437.64 404.154 437.915 403.666C440.761 394.398 412.58 396.198 411.009 396.934Z" fill="#695B64"/>
<path d="M436.227 402.764C432.938 404.2 429.336 404.77 425.765 404.418C423.953 404.226 418.298 402.296 413.071 399.992C409.993 398.634 410.349 397.341 410.567 395.928C411.032 392.893 411.934 391.285 412.164 388.872C412.218 388.326 413.428 388.8 414.375 390.202C415.731 392.212 417.086 395.466 418.338 394.986C419.932 385.828 425.452 386.488 426.451 387.608C428.619 390.038 430.526 394.024 433.119 396.075C433.49 396.362 435.075 397.64 435.44 397.993C437.269 399.777 437.835 402.014 436.227 402.764Z" fill="#BAA4A4"/>
<path d="M428.433 390.325C425.664 389.076 422.474 392.884 422.141 393.347" stroke="#210602" stroke-width="2.06" stroke-linecap="round" stroke-linejoin="round"/>
<path d="M429.951 392.45C427.527 391.758 424.555 394.716 424.207 395.167" stroke="#210602" stroke-width="2.06" stroke-linecap="round" stroke-linejoin="round"/>
<path d="M431.707 394.622C429.392 393.657 426.845 396.919 426.506 397.37" stroke="#210602" stroke-width="2.06" stroke-linecap="round" stroke-linejoin="round"/>
<path d="M444.371 386.279C441.453 376.095 442.051 305.577 440.876 304.161C440.014 303.135 418.083 306.105 404.074 306.846C386.137 307.797 368.177 305.938 363.978 303.555C355.693 298.853 351.201 291.392 350.291 281.24C354.2 271.254 417.204 275.705 426.681 268.5C447.358 271.104 468.876 275.886 471.989 280.524C479.203 291.271 466.61 372.338 464.341 386.44C464.051 388.232 444.606 387.089 444.371 386.279Z" fill="#4A567D"/>
<path d="M428.074 387.402C427.83 389.254 409.474 389.142 409.33 387.608C408.905 383.114 404.945 348.354 402.438 328.274C401.082 317.383 400.853 307.558 400.255 307.555C393.466 307.527 370.168 307.059 363.97 303.535C355.685 298.83 351.194 291.369 350.283 281.22C355.553 266.087 383.613 268.913 409.629 272.202C427.48 274.456 430.811 278.233 433.155 280.197C439.981 291.47 429.953 373.068 428.074 387.402Z" fill="#5D6685"/>
<path d="M348.881 300.186C349.803 298.176 359.481 282.633 377.599 277.885" stroke="#210602" stroke-width="2.06" stroke-linecap="round" stroke-linejoin="round"/>
<path d="M427.324 268.686C424.295 268.655 415.602 271.627 413.916 271.82" stroke="#210602" stroke-width="2.06" stroke-linecap="round" stroke-linejoin="round"/>
<path d="M403.801 222.218C404.469 223.659 405.051 225.139 405.544 226.649C406.601 230.096 407.637 262.127 407.637 262.127" stroke="#210602" stroke-width="2.06" stroke-linecap="round" stroke-linejoin="round"/>
<path d="M364.32 166.815C367.766 173.84 379.687 196.729 380.615 196.646C381.542 196.563 388.013 193.254 388.481 194.027C388.949 194.799 383.311 203.438 383.923 204.509C384.535 205.581 403.908 231.003 405.134 232.187" stroke="#210602" stroke-width="2.06" stroke-linecap="round" stroke-linejoin="round"/>
<path d="M412.817 168.443C414.135 173.125 414.681 192.49 413.653 193.516C412.625 194.541 408.182 192.149 407.668 192.654C407.154 193.159 414.135 199.326 413.986 200.865C413.837 202.404 405.727 224.972 405.727 224.972" stroke="#210602" stroke-width="2.06" stroke-linecap="round" stroke-linejoin="round"/>
<path d="M405.358 261.943C406.22 260.794 407.311 263.221 406.619 263.666C405.927 264.111 404.574 262.974 405.358 261.943Z" stroke="#210602" stroke-width="2.06" stroke-linecap="round" stroke-linejoin="round"/>
<path d="M341.97 179.948C335.652 188.154 334.265 261.986 337.22 265.854C342.226 272.408 381.604 279.565 389.056 276.785C396.508 274.005 393.416 259.72 392.62 258.924C390.555 256.862 366.487 245.331 366.487 245.331C366.487 245.331 370.039 204.659 368.244 200.428C366.449 196.198 345.006 176.008 341.97 179.948Z" fill="#5D6685"/>
<path d="M345.764 270.763C346.944 271.168 381.374 279.232 387.428 277.69C387.896 277.569 389.392 275.915 389.765 274.895" stroke="#210602" stroke-width="2.06" stroke-linecap="round" stroke-linejoin="round"/>
<path d="M393.416 261.954C393.307 260.989 393.08 259.295 392.621 258.924C392.161 258.554 367.499 246.641 366.488 245.331C365.477 244.022 368.159 216.503 368.621 213.065" stroke="#210602" stroke-width="2.06" stroke-linecap="round" stroke-linejoin="round"/>
<path d="M393.273 263.276C392.173 262.701 390.438 262.578 389.936 262.79C389.433 263.003 387.607 268.003 387.443 268.902C387.279 269.801 386.811 273.21 388.121 274.462C389.43 275.714 396.449 271.268 396.449 271.268L393.273 263.276Z" fill="#EDE5DC"/>
<path d="M413 273.328C413.483 273.285 415.872 267.707 414.766 266.176C414.037 265.174 410.746 260.18 408.282 260.088C405.818 259.996 397.142 262.121 392.55 263.155C390.077 263.709 388.926 271.771 390.655 273.494C392.665 275.505 398.581 273.934 399.896 273.997C401.332 274.063 404.609 276.294 407.707 275.146C410.729 274.025 413 273.328 413 273.328Z" fill="#D16556"/>
<path d="M409.32 264.508C410.624 265.881 411.882 267.647 412.115 268.376C412.445 269.41 412.149 273.29 412.149 273.29" stroke="#210602" stroke-width="2.06" stroke-linecap="round" stroke-linejoin="round"/>
<path d="M403.803 270.355C404.805 271.504 406.675 274.462 406.675 274.462" stroke="#210602" stroke-width="2.06" stroke-linecap="round" stroke-linejoin="round"/>
<path d="M407.105 267.641C407.846 268.835 409.799 272.744 409.862 273.623" stroke="#210602" stroke-width="2.06" stroke-linecap="round" stroke-linejoin="round"/>
<path d="M392.689 262.385C392.79 261.957 392.184 261.139 391.641 261.012C390.406 260.725 384.663 271.234 388.436 274.798" stroke="#210602" stroke-width="2.06" stroke-linecap="round" stroke-linejoin="round"/>
<path d="M434.638 267.342C433.949 262.747 438.719 261.914 439.56 261.561C440.402 261.208 445.422 260.263 446.921 261.274C448.42 262.285 442.984 271.38 442.984 271.38C442.984 271.38 434.719 267.882 434.638 267.342Z" fill="#EDE5DC"/>
<path d="M460.655 274.531C460.753 273.336 460.308 267.756 458.507 266.202C457.312 265.165 451.416 264.14 446.664 261.782C444.467 260.691 437.284 266.259 437.804 268.569C438.41 271.268 443.41 272.486 444.452 273.218C445.412 276.3 448.111 277.658 451.006 279.017C453.168 280.016 460.428 277.259 460.655 274.531Z" fill="#D16556"/>
<path d="M457.838 270.401C458.194 272.196 459.305 274.973 458.576 276.294" stroke="#210602" stroke-width="2.06" stroke-linecap="round" stroke-linejoin="round"/>
<path d="M451.969 272.787C452.098 273.615 452.44 274.755 452.621 276.294C452.664 277.095 452.477 277.892 452.084 278.592" stroke="#210602" stroke-width="2.06" stroke-linecap="round" stroke-linejoin="round"/>
<path d="M455.021 271.283C455.366 272.776 456.48 275.691 455.705 277.601" stroke="#210602" stroke-width="2.06" stroke-linecap="round" stroke-linejoin="round"/>
<path d="M448.195 261.805C444.749 259.628 431.056 261.167 435.393 269.091" stroke="#210602" stroke-width="2.06" stroke-linecap="round" stroke-linejoin="round"/>
<path d="M437.836 267.885C439.019 270.415 439.272 274.525 440.389 275.596C440.943 276.13 442.796 276.673 444.461 277.417C446.127 278.161 447.6 279.103 447.907 278.724C449.076 277.256 447.031 272.371 447.031 272.371L437.836 267.885Z" fill="#D16556"/>
<path d="M448.255 277.609C448.238 276.814 447.336 274.45 446.474 273.991C445.613 273.531 444.596 273.195 444.234 272.937" stroke="#210602" stroke-width="2.06" stroke-linecap="round" stroke-linejoin="round"/>
<path d="M309.088 94.8896C308.307 95.6104 305.137 97.4571 300.777 99.8236C291.723 104.752 277.553 111.938 269.139 115.996C265.331 117.831 262.706 119.026 262.264 119.083C264.613 112.765 266.859 108.009 268.852 105.955C268.989 105.815 269.116 105.691 269.242 105.582C269.368 105.473 269.466 105.381 269.59 105.295C271.922 103.336 275.356 100.929 279.153 98.5571C287.619 93.2698 297.86 88.1548 301.513 88.5971C302.661 88.7321 304.485 89.2146 305.533 89.8062C305.544 89.804 305.556 89.804 305.567 89.8062L309.088 94.8896Z" fill="#FCF9F7"/>
<path d="M311.058 97.7329L313.642 101.466C313.642 101.466 314.897 128.118 307.859 152.639C304.7 163.644 289.028 249.711 298.095 288.629L230.895 287.972C230.874 287.817 241.922 197.769 241.807 197.766C241.669 197.775 241.536 197.824 241.425 197.907C241.425 197.907 251.669 149.54 261.023 122.547C264.09 122.199 308.143 100.352 311.058 97.7329Z" fill="#FFFFFD"/>
<path d="M210.642 392.517C211.475 390.038 212.147 387.224 211.351 384.084C213.781 381.761 219.522 379.808 221.627 381.425C221.669 383.874 222.156 386.295 223.062 388.57C224.131 391.319 210.142 394.013 210.642 392.517Z" fill="#FF9D8C"/>
<path d="M208.546 396.42C208.945 395.225 209.772 393.438 210.332 391.707C210.375 391.577 210.465 391.468 210.584 391.401C210.702 391.334 210.842 391.314 210.975 391.345C214.637 392.109 215.889 388.973 217.867 387.628C219.252 386.689 222.827 386.813 223.398 388.203C224.547 390.997 226.296 393.493 228.637 394.757C230.891 394.808 232.723 394.92 233.071 395.127C234.909 396.201 235.009 399.941 233.789 399.941H209.953C208.637 399.941 207.782 398.708 208.546 396.42Z" fill="#AB483C"/>
<path d="M224.943 393.309C223.478 393.269 221.058 393.401 220.23 393.68" stroke="#260500" stroke-width="2.06" stroke-linecap="round" stroke-linejoin="round"/>
<path d="M222.849 391.218C221.479 391.172 220.11 391.328 218.785 391.681" stroke="#260500" stroke-width="2.06" stroke-linecap="round" stroke-linejoin="round"/>
<path d="M280.695 397.138C280.695 397.138 293.598 390.457 290.706 388.171C287.39 385.555 285.557 381.304 285.557 381.304C285.557 381.304 277.746 381.879 275.322 384.219C276.023 386.293 276.069 389.047 275.917 391.687C275.81 393.571 279.504 397.138 280.695 397.138Z" fill="#FF9D8C"/>
<path d="M276.459 400.064H316.012C317.213 400.064 317.649 396.669 316.03 395.351C315.579 394.986 312.563 394.671 309.111 394.202C309.111 394.202 309.111 394.202 309.08 394.202C303.319 393.453 294.56 390.521 291.209 388.191C291.159 388.158 291.102 388.135 291.043 388.124C290.985 388.113 290.924 388.113 290.865 388.126C290.806 388.138 290.751 388.162 290.701 388.196C290.652 388.23 290.609 388.273 290.577 388.324C289.141 390.265 282.315 393.513 276.046 391.698C275.981 391.681 275.913 391.678 275.847 391.689C275.781 391.701 275.718 391.727 275.663 391.766C275.608 391.804 275.563 391.855 275.53 391.913C275.496 391.971 275.476 392.036 275.471 392.103C275.356 393.855 275.262 395.549 275.049 396.914C274.71 399.019 275.227 400.064 276.459 400.064Z" fill="#AB483C"/>
<path d="M295.925 391.19L295.141 393.2" stroke="#260500" stroke-width="2.06" stroke-linecap="round" stroke-linejoin="round"/>
<path d="M298.936 392.089L298.152 394.099" stroke="#260500" stroke-width="2.06" stroke-linecap="round" stroke-linejoin="round"/>
<path d="M210.789 241.104C227.098 241.555 242.244 242.956 240.871 252.345C237.138 277.98 225.246 369.357 225.34 384.943C225.363 388.608 202.443 386.506 202.219 384.656C201.211 376.327 201.711 333.191 202.742 311.654C203.518 295.551 206.593 240.989 210.789 241.104Z" fill="#6D84BF"/>
<path d="M227.119 289.037C225.468 302.501 220.442 371.706 221.014 385.437" stroke="#C4CDDD" stroke-width="2.06" stroke-linecap="round" stroke-linejoin="round"/>
<path d="M279.012 191.356C279.012 211.954 285.674 366.807 288.842 383.777C289.514 387.379 267.453 390.075 267.062 388.257C263.616 372.2 256.382 338.285 252.186 312.802C250.794 304.339 249.099 292.412 247.482 279.307C245.555 263.689 245.237 252.31 245.257 248.315C245.257 247.425 241.345 216.899 247.893 205.038C257.6 187.493 279.012 187.094 279.012 191.356Z" fill="#6D84BF"/>
<path d="M274.348 222.218C274.348 247.474 281.487 365.242 285.548 381.304" stroke="#C4CDDD" stroke-width="2.06" stroke-linecap="round" stroke-linejoin="round"/>
<path d="M237.092 211.425C237.072 211.27 241.919 197.766 241.81 197.763C241.672 197.772 241.539 197.821 241.428 197.904C241.428 197.904 261.427 116.829 271.536 108.098C280.152 100.668 294.378 92.6897 302.063 89.542L309.131 101.354C309.131 101.354 311.02 134.577 299.596 157.386C295.576 165.428 281.24 208.105 280.295 213.065L237.092 211.425Z" fill="#EAC89F"/>
<path d="M296.406 139.511C295.714 141.346 269.842 192.809 253.728 215.923C249.104 222.56 240.966 290.881 240.342 290.881C237.034 291.05 211.337 287.911 197.728 284.433C192.903 283.21 189.595 281.935 189.348 280.743C186.87 268.916 202.472 206.798 204.612 200.566C209.129 187.355 252.502 120.381 259.578 111.642C268.75 100.309 292.101 91.0297 299.496 88.735C299.783 89.6626 300.013 91.3686 300.196 93.6173C301.067 104.565 300.57 128.469 296.406 139.511Z" fill="#FFFFFD"/>
<path d="M240.816 288.058C241.678 282.845 243.648 271.173 245.612 259.714" stroke="#210602" stroke-width="2.06" stroke-linecap="round" stroke-linejoin="round"/>
<path d="M296.538 89.8206C296.153 91.9085 294.165 107.879 294.206 108.603C294.246 109.327 298.031 110.984 297.996 111.412C297.962 111.84 294.639 111.926 294.55 112.345C294.461 112.765 296.311 126.257 296.506 128.012" stroke="#210602" stroke-width="2.06" stroke-linecap="round" stroke-linejoin="round"/>
<path d="M307.855 140.022C309.332 137.438 313.682 125.304 313.639 123.833C313.596 122.363 311.666 117.311 311.666 117.311C311.666 117.311 314.377 116.268 314.481 115.332C314.538 114.821 313.602 104.473 313.639 103.411" stroke="#210602" stroke-width="2.06" stroke-linecap="round" stroke-linejoin="round"/>
<path d="M279.011 164.535L274.348 162.352" stroke="#210602" stroke-width="2.06" stroke-linecap="round" stroke-linejoin="round"/>
<path d="M266.381 187.255L261.984 185.135" stroke="#210602" stroke-width="2.06" stroke-linecap="round" stroke-linejoin="round"/>
<path d="M252.409 211.247L248.01 209.13" stroke="#210602" stroke-width="2.06" stroke-linecap="round" stroke-linejoin="round"/>
<path d="M311.572 138.296C310.667 141.413 309.088 147.263 309.088 147.263" stroke="#210602" stroke-width="2.06" stroke-linecap="round" stroke-linejoin="round"/>
<path d="M382.589 146.881C383.089 148.658 378.379 156.329 376.705 158.469C375.031 160.609 362.214 164.127 362.214 164.127L358.768 157.808C358.768 157.808 365.315 145.798 366.978 144.698C368.641 143.598 378.178 143.673 378.497 144.236C378.816 144.798 378.373 145.554 378.373 145.554C378.373 145.554 382.256 145.697 382.589 146.881Z" fill="#FFA38C"/>
<path d="M381.749 149.994C380.953 150.479 378.656 151.074 378.438 151.143" stroke="#210602" stroke-width="2.06" stroke-linecap="round" stroke-linejoin="round"/>
<path d="M378.243 156.252C377.93 156.729 376.27 157.381 375.695 157.401" stroke="#210602" stroke-width="2.06" stroke-linecap="round" stroke-linejoin="round"/>
<path d="M380.14 153.11C379.772 153.745 377.92 154.575 377.156 154.463" stroke="#210602" stroke-width="2.06" stroke-linecap="round" stroke-linejoin="round"/>
<path d="M378.361 145.545C378.361 145.545 377.301 146.622 376.396 146.717" stroke="#210602" stroke-width="2.06" stroke-linecap="round" stroke-linejoin="round"/>
<path d="M380.249 135.887C381.351 136.312 383.54 139.468 386.012 140.353C386.348 140.473 385.981 141.329 385.754 141.295C382.109 140.74 379.177 141.074 378.339 140.72C377.5 140.367 375.404 138.805 375.16 138.345C374.916 137.886 375.832 135.502 376.331 135.335C376.831 135.169 379.938 135.766 380.249 135.887Z" fill="#695B64"/>
<path d="M376.311 135.703C376.701 135.818 375.736 138.09 375.449 138.015C375.162 137.94 375.874 135.574 376.311 135.703Z" fill="#260500"/>
<path d="M374.052 149.155C374.523 148.742 376.306 147.286 376.74 146.78L378.463 143.408L380.022 140.367C380.088 140.247 380.128 140.115 380.142 139.979C380.155 139.843 380.142 139.705 380.101 139.575C380.061 139.444 379.995 139.323 379.907 139.218C379.819 139.113 379.712 139.027 379.59 138.965C379.468 138.902 379.335 138.865 379.199 138.855C379.063 138.844 378.926 138.861 378.796 138.905C378.667 138.948 378.547 139.017 378.444 139.107C378.342 139.198 378.258 139.308 378.199 139.431L374.508 146.611C373.862 148.09 373.923 149.144 374.052 149.155Z" fill="#695B64"/>
<path d="M377.052 143.477L374.283 143.914L372.445 141.524" stroke="#695B64" stroke-width="2.06" stroke-linecap="round" stroke-linejoin="round"/>
<path d="M379.888 141.042C379.972 141.223 379.343 142.679 379.119 142.788C378.895 142.897 376.821 141.892 376.807 141.72C376.793 141.548 377.327 140.129 377.565 140.031C377.803 139.934 379.802 140.853 379.888 141.042Z" fill="#FFFFFD"/>
<path d="M380.512 137.059C381.296 137.576 382.37 138.805 383.349 139.592" stroke="#FFFFFD" stroke-width="2.06" stroke-linecap="round" stroke-linejoin="round"/>
<path d="M378.004 146.737C377.142 146.662 373.409 146.817 372.619 147.188C371.829 147.558 371.008 150.27 371.008 150.27L374.523 151.746L378.469 148.526L378.004 146.737Z" fill="#FFA38C"/>
<path d="M378.917 146.772C378.472 146.732 373.391 146.622 372.223 147.263" stroke="#210602" stroke-width="2.06" stroke-linecap="round" stroke-linejoin="round"/>
<path d="M288.554 116.51C293.467 123.515 312.634 154.061 315.017 155.152C319.899 157.386 359.139 152.068 359.139 152.068L365.788 164.905C365.788 164.905 327.53 185.871 308.524 183.556C293.78 181.755 264.184 139.879 264.184 139.879L288.554 116.51Z" fill="#FFFFFD"/>
<path d="M365.787 164.905L359.139 152.067C359.139 152.067 318.578 156.783 315.017 155.152C311.456 153.521 295.417 126.863 294.205 124.996" stroke="#210602" stroke-width="2.06" stroke-linecap="round" stroke-linejoin="round"/>
<path d="M271.117 149.155C272.496 151.717 290.177 173.616 302.48 181.103" stroke="#210602" stroke-width="2.06" stroke-linecap="round" stroke-linejoin="round"/>
<path d="M305.759 111.642C306.646 111.739 310.044 106.438 311.296 104.729C312.378 103.25 321.106 96.3715 324.112 94.3238L325.043 78.439C325.043 78.439 316.548 78.6199 315.201 79.9296C310.911 84.1111 306.833 88.1347 301.896 90.1193C300.317 95.1366 305.098 111.567 305.759 111.642Z" fill="#FFA38C"/>
<path d="M340.1 101.38C339.021 102.902 335.589 101.667 335.149 101.989C333.78 102.563 329.75 108.93 325.569 107.767C322.16 106.82 319.217 104.531 316.833 101.865C313.149 97.7384 311.747 91.0525 311.581 89.269C311.354 86.848 314.929 77.7008 317.364 75.228C322.516 70.001 346.456 78.1 346.456 78.1C347.277 81.8077 340.56 91.4402 340.014 92.7039C339.193 94.5649 340.899 100.246 340.1 101.38Z" fill="#FFA38C"/>
<path d="M354.271 76.2678C353.831 69.826 346.571 69.6623 343.932 67.1293C342.129 65.4061 340.641 62.9218 337.58 60.383C333.786 57.2382 326.765 56.2991 323.33 59.4985C320.415 58.3669 317.265 58.9011 315.24 60.8511C314.229 61.8247 313.557 64.3147 313.339 65.9288C313.184 67.0776 312.699 67.6204 311.725 68.4188C310.048 69.7944 308.138 81.782 307.641 82.9595C306.674 85.2571 305.419 85.9291 304.77 86.1761C306.042 87.5173 314.752 92.1929 324.493 86.4001C325.432 85.8429 326.587 85.6448 327.684 85.4725C328.456 85.3518 329.694 85.5328 330.288 84.9124C330.234 87.6322 329.111 88.2698 328.637 90.1423C328.545 90.5013 329.611 92.3163 329.786 92.1354C331.727 90.1049 336.009 82.6723 336.615 82.5115C337.356 82.3162 341.784 84.0451 346.092 83.6402C350.816 83.1921 354.489 79.4873 354.271 76.2678Z" fill="#8F3535"/>
<path d="M330.646 84.3608C330.895 81.3625 327.8 80.3401 325.953 82.0632C324.049 83.8668 323.558 89.2431 325.726 90.0128C327.576 90.6705 330.35 87.8818 330.646 84.3608Z" fill="#FFA38C"/>
<path d="M325.57 107.756C322.962 107.225 319.082 104.93 315.889 100.677C317.178 98.6174 318.901 98.0918 319.513 98.1665C319.964 98.2239 320.857 101.326 322.385 103.02C324.168 105.045 326.764 106.998 325.57 107.756Z" fill="#FA8C7A"/>
<path d="M335.774 101.713C335.618 101.228 335.713 100.992 336.121 100.734C336.529 100.475 339.498 101.139 339.389 101.595C339.22 102.29 335.811 101.837 335.774 101.713Z" fill="#FA8C7A"/>
<path d="M328.305 85.0589C327.938 84.0968 325.677 85.9664 326.47 87.5029C327.263 89.0394 329.365 87.8361 328.305 85.0589Z" fill="#FA8C7A"/>
<path d="M328.353 86.989C329.318 84.6914 328.27 83.7609 327.348 84.3382" stroke="#210602" stroke-width="2.06" stroke-linecap="round" stroke-linejoin="round"/>
<path d="M329.148 88.7809C328.042 90.6764 315.274 93.2411 315.889 100.677C316.328 105.978 324.3 111.642 329.047 110.935C332.847 110.361 337.051 103.488 336.06 101.975C335.069 100.461 330.173 97.8621 329.521 96.4462C328.869 95.0303 330.147 91.6845 330.67 91.0297C331.192 90.3748 329.751 87.7441 329.148 88.7809Z" fill="#8F3535"/>
<path d="M353.891 76.1988C354.256 79.5676 350.086 86.6757 342.191 84.7543" stroke="#8F3535" stroke-width="2.06" stroke-linecap="round" stroke-linejoin="round"/>
<path d="M317.869 88.5942C315.713 89.1945 309.22 90.978 304.564 87.2473" stroke="#8F3535" stroke-width="2.06" stroke-linecap="round" stroke-linejoin="round"/>
<path d="M342.212 65.7679C340.181 61.974 336.376 56.503 328.783 56.7844" stroke="#8F3535" stroke-width="2.06" stroke-linecap="round" stroke-linejoin="round"/>
<path d="M337.524 91.7132L335.557 90.3461" stroke="#260500" stroke-width="2.06" stroke-linecap="round" stroke-linejoin="round"/>
<path d="M337.273 91.5351C337.273 91.5351 335.888 93.692 335.463 93.3301C335.038 92.9682 336.356 90.9004 336.356 90.9004L337.273 91.5351Z" fill="#260500"/>
<path d="M341.17 89.4127C341.21 90.056 340.164 90.2743 339.895 90.4667C339.625 90.6591 336.233 87.747 336.066 87.1841C335.9 86.6212 341.127 88.7234 341.17 89.4127Z" fill="#8F3535"/>
<path d="M344.993 83.8383C341.484 82.9595 316.172 68.6169 313.34 65.9287C312.568 66.2159 311.534 68.0367 311.727 68.4187C311.919 68.8007 328.863 80.8457 343.626 86.5121C344.723 86.1215 344.993 83.8383 344.993 83.8383Z" fill="#FFFFFD"/>
<path d="M338.428 80.7681C336.013 85.3862 337.73 88.7693 339.781 89.8722C341.831 90.975 348.887 77.8501 346.84 76.7502C344.792 75.6502 340.786 76.2648 338.428 80.7681Z" fill="#695B64"/>
<path d="M347.028 85.3091C348.977 81.6857 348.896 77.8547 346.847 76.7523C344.798 75.6498 341.557 77.6935 339.608 81.3168C337.658 84.9402 337.739 88.7712 339.788 89.8736C341.837 90.976 345.078 88.9324 347.028 85.3091Z" fill="#FFFFFD"/>
<path d="M342.686 82.9765C342.359 83.5825 342.373 84.2258 342.715 84.4125C343.057 84.5992 343.602 84.2545 343.93 83.6486C344.257 83.0426 344.243 82.3964 343.901 82.2126C343.559 82.0288 343.013 82.3677 342.686 82.9765Z" fill="#210602"/>
<path d="M331.097 102.032C330.236 101.222 329.476 100.311 328.834 99.3181" stroke="#210602" stroke-width="2.06" stroke-linecap="round" stroke-linejoin="round"/>
</svg>
